<svg width="19" height="20" viewBox="0 0 19 20" fill="none" xmlns="http://www.w3.org/2000/svg">
<path d="M11.7914 13.8575C11.7399 13.1574 11.7254 12.455 11.7481 11.7533L11.7472 11.7842C12.3743 11.1341 12.7654 10.2926 12.8581 9.39417L12.8597 9.37667C13.1422 9.35333 13.5881 9.07833 13.7181 7.98833C13.7573 7.80061 13.7425 7.60561 13.6754 7.42595C13.6083 7.2463 13.4916 7.08936 13.3389 6.97333L13.3364 6.97167C13.7964 5.58833 14.7514 1.30833 11.5689 0.866667C11.2414 0.291667 10.4031 0 9.31307 0C4.95224 0.08 4.42641 3.2925 5.37974 6.97167C5.22581 7.08875 5.1084 7.24725 5.04125 7.42862C4.97411 7.60999 4.96 7.80674 5.00057 7.99583L4.99974 7.98917C5.13307 9.0775 5.57557 9.35417 5.85807 9.3775C5.95717 10.286 6.36071 11.1342 7.00307 11.7842C7.0242 12.4981 7.00806 13.2127 6.95474 13.925L6.95891 13.8575C6.09391 16.1775 0.270573 15.5258 0.00390625 20H18.7189C18.4506 15.5258 12.6539 16.1775 11.7906 13.8575H11.7914Z" fill="white"/>
</svg>
